<?xml version="1.0" encoding="utf-8"?>
<!-- Generator: Adobe Illustrator 16.0.5, SVG Export Plug-In . SVG Version: 6.00 Build 0)  -->
<!DOCTYPE svg PUBLIC "-//W3C//DTD SVG 1.1//EN" "http://www.w3.org/Graphics/SVG/1.1/DTD/svg11.dtd">
<svg version="1.1" id="Layer_1" xmlns="http://www.w3.org/2000/svg" xmlns:xlink="http://www.w3.org/1999/xlink" x="0px" y="0px"
	 width="128px" height="128px" viewBox="64 64 128 128" enable-background="new 64 64 128 128" xml:space="preserve">
<g>
	<path fill="#339933" d="M71.338,90.623c20.859-8.891,38.885-14.855,54.077-17.893c22.936,1.204,44.01,3.59,63.222,7.157
		c-15.868,5.006-29.521,12.03-40.955,21.074C122.6,94.738,97.152,91.291,71.338,90.623z"/>
	<path fill="#663300" d="M71.338,90.623c25.813,0.668,51.261,4.115,76.344,10.338c-2.743,25.073-4.07,52.508-3.977,82.308
		c-24.936-9.038-50.383-15.003-76.344-17.894C71.804,139.42,73.129,114.502,71.338,90.623z"/>
	<path fill="#773B00" d="M143.706,183.27c-0.094-29.8,1.233-57.236,3.977-82.308c11.435-9.044,25.087-16.068,40.955-21.074
		c-3.153,26.465-4.346,51.647-3.579,75.549C172.932,161.388,159.148,170.665,143.706,183.27z"/>
	<path fill="none" stroke="#000000" stroke-width="3" stroke-linecap="round" stroke-linejoin="round" stroke-miterlimit="3" d="
		M143.706,183.27c15.442-12.604,29.226-21.882,41.353-27.834c-0.767-23.9,0.427-49.083,3.579-75.548
		c-15.868,5.006-29.521,12.03-40.955,21.074C144.939,126.033,143.613,153.47,143.706,183.27z M71.338,90.623
		c1.791,23.879,0.465,48.797-3.976,74.753c25.96,2.891,51.408,8.855,76.344,17.894 M147.683,100.961
		c-25.083-6.223-50.531-9.67-76.344-10.338c20.859-8.891,38.885-14.855,54.077-17.893c22.936,1.204,44.01,3.59,63.222,7.157"/>
</g>
<g>
	<path fill="#3399CC" d="M99.57,108.198l41.432,3.42v0.079l-16.063,16.938c2.491,1.061,4.745,2.757,6.759,5.09
		c1.644,1.962,2.863,4.082,3.657,6.362c0.69,2.227,0.929,4.639,0.717,7.236c-0.213,2.599-0.85,4.958-1.909,7.078
		c-1.166,2.175-2.704,4.081-4.612,5.727c-2.014,1.643-4.162,2.836-6.442,3.578c-2.279,0.741-4.718,1.007-7.315,0.796
		c-2.598-0.213-4.983-0.877-7.157-1.988c-2.121-1.114-4.03-2.651-5.726-4.614c-1.697-1.961-2.89-4.081-3.579-6.361
		c-0.742-2.28-1.007-4.719-0.795-7.316c0.159-1.803,0.53-3.473,1.113-5.01h0.08l5.089,6.043c-0.158,3.234,0.823,6.124,2.942,8.669
		c2.227,2.598,5.063,4.082,8.51,4.452c3.446,0.214,6.495-0.795,9.146-3.021c2.65-2.228,4.108-5.063,4.373-8.511
		c0.319-3.392-0.662-6.414-2.942-9.065c-2.226-2.65-5.062-4.108-8.509-4.374c-2.067-0.158-3.922,0.107-5.566,0.795h-0.08
		l15.428-17.256l-23.699-0.954l-4.851-7.715L99.57,108.198L99.57,108.198z"/>
	<path fill="none" stroke="#000000" stroke-width="1.5" stroke-linecap="round" stroke-linejoin="round" stroke-miterlimit="3" d="
		M99.57,108.198l41.432,3.42v0.079l-16.063,16.938c2.491,1.061,4.745,2.757,6.759,5.09c1.644,1.962,2.863,4.082,3.657,6.362
		c0.69,2.227,0.929,4.639,0.717,7.236c-0.213,2.599-0.85,4.958-1.909,7.078c-1.166,2.175-2.704,4.081-4.612,5.727
		c-2.014,1.643-4.162,2.836-6.442,3.578c-2.279,0.741-4.718,1.007-7.315,0.796c-2.598-0.213-4.983-0.877-7.157-1.988
		c-2.121-1.114-4.03-2.651-5.726-4.614c-1.697-1.961-2.89-4.081-3.579-6.361c-0.742-2.28-1.007-4.719-0.795-7.316
		c0.159-1.803,0.53-3.473,1.113-5.01h0.08l5.089,6.043c-0.158,3.234,0.823,6.124,2.942,8.669c2.227,2.598,5.063,4.082,8.51,4.452
		c3.446,0.214,6.495-0.795,9.146-3.021c2.65-2.228,4.108-5.063,4.373-8.511c0.319-3.392-0.662-6.414-2.942-9.065
		c-2.226-2.65-5.062-4.108-8.509-4.374c-2.067-0.158-3.922,0.107-5.566,0.795h-0.08l15.428-17.256l-23.699-0.954l-4.851-7.715
		L99.57,108.198L99.57,108.198z"/>
</g>
<g>
	<polygon fill="#3399CC" points="93.685,126.17 87.959,116.15 81.041,125.137 75.236,124.658 89.153,106.687 100.604,126.807 	"/>
	
		<polygon fill="none" stroke="#000000" stroke-width="1.5" stroke-linecap="round" stroke-linejoin="round" stroke-miterlimit="3" points="
		93.685,126.17 87.959,116.15 81.041,125.137 75.236,124.658 89.153,106.687 100.604,126.807 	"/>
</g>
</svg>
