<?xml version="1.0" encoding="utf-8"?>
<!-- Generator: Adobe Illustrator 16.0.0, SVG Export Plug-In . SVG Version: 6.00 Build 0)  -->
<!DOCTYPE svg PUBLIC "-//W3C//DTD SVG 1.1//EN" "http://www.w3.org/Graphics/SVG/1.1/DTD/svg11.dtd">
<svg version="1.1" id="Layer_1" xmlns="http://www.w3.org/2000/svg" xmlns:xlink="http://www.w3.org/1999/xlink" x="0px" y="0px"
	 width="680px" height="80px" viewBox="0 0 680 80" enable-background="new 0 0 680 80" xml:space="preserve">
<g enable-background="new    ">
	<path fill="#FF0000" d="M52.221,8.925l-5.12,10.288c-2.775-2.775-7.242-4.163-13.398-4.163c-5.838,0-10.623,2.449-14.355,7.345
		c-3.732,4.897-5.599,11.094-5.599,18.59c0,7.497,1.73,13.446,5.192,17.849c3.461,4.402,8.079,6.604,13.853,6.604
		c6.604,0,11.771-2.36,15.504-7.082l5.79,10.049c-5.072,5.392-12.506,8.087-22.299,8.087c-9.794,0-17.402-3.222-22.825-9.666
		c-5.424-6.443-8.135-15.232-8.135-26.366c0-10.367,3.006-19.037,9.02-26.007c6.013-6.97,13.709-10.456,23.088-10.456
		C40.976,3.996,47.403,5.64,52.221,8.925z"/>
	<path fill="#FF0000" d="M96.436,75.343v-4.307c-1.691,1.436-4.02,2.664-6.986,3.685s-5.694,1.531-8.183,1.531
		c-11.899,0-17.849-6.316-17.849-18.949V24.046h11.963v32.348c0,6.572,2.95,9.857,8.853,9.857c2.711,0,5.231-0.701,7.561-2.105
		c2.328-1.403,3.876-3.03,4.642-4.881V24.046h11.963v51.297H96.436z"/>
	<path fill="#FF0000" d="M129.788,72.472l-2.68,3.78h-6.747V4.953l11.963-2.871v23.926c3.189-1.945,6.667-2.919,10.432-2.919
		c7.496,0,13.542,2.369,18.136,7.106s6.891,10.807,6.891,18.208c0,8.582-2.313,15.368-6.938,20.361
		c-4.626,4.992-10.895,7.488-18.806,7.488C137.284,76.252,133.201,74.992,129.788,72.472z M132.324,36.248v26.749
		c1.754,2.074,4.131,3.11,7.13,3.11c5.773,0,9.865-1.371,12.274-4.115c2.408-2.743,3.613-7.13,3.613-13.159
		c0-10.399-4.977-15.6-14.93-15.6C136.87,33.233,134.174,34.238,132.324,36.248z"/>
	<path fill="#FF0000" d="M224.056,53.331h-36.606c0.223,4.084,1.627,7.258,4.211,9.522c2.584,2.266,6.061,3.397,10.432,3.397
		c5.455,0,9.602-1.419,12.441-4.259l4.642,9.14c-4.211,3.414-10.496,5.12-18.854,5.12c-7.816,0-13.997-2.289-18.542-6.867
		c-4.546-4.577-6.819-10.965-6.819-19.164c0-8.07,2.496-14.61,7.489-19.619c4.992-5.008,10.982-7.513,17.968-7.513
		c7.433,0,13.398,2.218,17.896,6.651c4.498,4.435,6.747,10.081,6.747,16.939C225.061,48.147,224.726,50.364,224.056,53.331z
		 M187.88,44.335h25.17c-0.83-7.496-4.977-11.245-12.441-11.245C193.781,33.09,189.538,36.839,187.88,44.335z"/>
	<path fill="#FF0000" d="M256.786,75.295h-21.438V5.24c9.442-0.446,16.062-0.67,19.858-0.67c7.273,0,12.959,1.555,17.059,4.666
		c4.099,3.11,6.149,7.553,6.149,13.327c0,5.551-2.936,9.938-8.805,13.159c8.709,3.031,13.063,9.283,13.063,18.758
		c0,6.381-2.409,11.444-7.226,15.192C270.631,73.421,264.41,75.295,256.786,75.295z M247.79,15.193v16.796
		c1.914,0.128,3.924,0.191,6.029,0.191c8.103,0,12.154-3.046,12.154-9.14c0-5.391-3.685-8.087-11.054-8.087
		C252.974,14.954,250.597,15.034,247.79,15.193z M247.79,41.703v23.16c2.52,0.224,4.562,0.335,6.125,0.335
		c5.551,0,9.578-0.94,12.083-2.823c2.504-1.882,3.756-5.008,3.756-9.379c0-3.987-1.165-6.891-3.493-8.709
		c-2.329-1.818-6.396-2.728-12.202-2.728C252.846,41.56,250.757,41.607,247.79,41.703z"/>
	<path fill="#FF0000" d="M325.979,75.343v-4.307c-1.691,1.436-4.02,2.664-6.986,3.685s-5.694,1.531-8.183,1.531
		c-11.899,0-17.849-6.316-17.849-18.949V24.046h11.963v32.348c0,6.572,2.95,9.857,8.853,9.857c2.711,0,5.231-0.701,7.561-2.105
		c2.328-1.403,3.876-3.03,4.642-4.881V24.046h11.963v51.297H325.979z"/>
	<path fill="#FF0000" d="M354.068,75.295V33.855h-6.556v-9.81h18.662v51.249H354.068z M360.241,4.188
		c1.914,0,3.549,0.678,4.905,2.034c1.355,1.356,2.033,2.991,2.033,4.905s-0.678,3.549-2.033,4.905
		c-1.356,1.356-2.991,2.034-4.905,2.034s-3.549-0.677-4.905-2.034c-1.355-1.355-2.033-2.991-2.033-4.905s0.678-3.548,2.033-4.905
		C356.692,4.866,358.327,4.188,360.241,4.188z"/>
	<path fill="#FF0000" d="M382.157,4.953l11.963-2.871v57.613c0,6.316,1.882,10.081,5.646,11.293
		c-1.851,3.51-5.009,5.264-9.475,5.264c-5.424,0-8.135-3.764-8.135-11.293V4.953z"/>
	<path fill="#FF0000" d="M441.972,75.295v-3.11c-0.989,1.085-2.664,2.034-5.024,2.847c-2.361,0.814-4.802,1.221-7.321,1.221
		c-7.146,0-12.769-2.265-16.867-6.795c-4.1-4.529-6.149-10.846-6.149-18.949c0-8.103,2.353-14.698,7.058-19.787
		c4.706-5.088,10.6-7.632,17.682-7.632c3.892,0,7.433,0.798,10.623,2.393V4.953l11.963-2.871v73.213H441.972z M441.972,36.296
		c-2.553-2.041-5.216-3.062-7.991-3.062c-4.785,0-8.47,1.459-11.054,4.378c-2.584,2.92-3.876,7.106-3.876,12.562
		c0,10.655,5.136,15.982,15.408,15.982c1.148,0,2.56-0.343,4.235-1.028c1.674-0.687,2.767-1.38,3.277-2.082V36.296z"/>
	<path fill="#FF0000" d="M511.644,53.331h-36.606c0.223,4.084,1.627,7.258,4.211,9.522c2.584,2.266,6.061,3.397,10.432,3.397
		c5.455,0,9.602-1.419,12.441-4.259l4.642,9.14c-4.211,3.414-10.496,5.12-18.854,5.12c-7.816,0-13.997-2.289-18.542-6.867
		c-4.547-4.577-6.819-10.965-6.819-19.164c0-8.07,2.496-14.61,7.489-19.619c4.992-5.008,10.981-7.513,17.968-7.513
		c7.433,0,13.398,2.218,17.896,6.651c4.498,4.435,6.747,10.081,6.747,16.939C512.648,48.147,512.313,50.364,511.644,53.331z
		 M475.468,44.335h25.17c-0.83-7.496-4.977-11.245-12.441-11.245C481.369,33.09,477.126,36.839,475.468,44.335z"/>
	<path fill="#FF0000" d="M551.839,35.195c-2.138-1.403-4.482-2.105-7.034-2.105c-2.775,0-5.239,1.261-7.394,3.78
		c-2.152,2.521-3.229,5.599-3.229,9.235v29.189h-11.963V24.046h11.963v4.689c3.35-3.764,7.8-5.646,13.351-5.646
		c4.083,0,7.209,0.622,9.379,1.866L551.839,35.195z"/>
	<path fill="#FF0000" d="M560.931,71.993l4.259-9.522c3.572,2.84,7.608,4.259,12.106,4.259c4.657,0,6.986-1.658,6.986-4.977
		c0-1.945-0.702-3.541-2.105-4.785c-1.404-1.244-4.132-2.711-8.183-4.402c-8.837-3.668-13.255-8.805-13.255-15.408
		c0-4.434,1.69-7.887,5.072-10.36c3.381-2.472,7.704-3.708,12.968-3.708c5.327,0,10.336,1.196,15.025,3.589l-3.445,9.283
		c-2.616-2.232-6.253-3.35-10.91-3.35c-4.18,0-6.269,1.659-6.269,4.977c0,1.309,0.686,2.488,2.058,3.541
		c1.371,1.053,4.307,2.465,8.805,4.234c4.498,1.771,7.735,3.917,9.714,6.437c1.978,2.521,2.967,5.567,2.967,9.14
		c0,4.754-1.763,8.494-5.288,11.221c-3.524,2.729-8.318,4.092-14.379,4.092c-3.414,0-6.148-0.279-8.207-0.838
		C566.793,74.856,564.152,73.716,560.931,71.993z"/>
</g>
<g enable-background="new    ">
	<path fill="#00FFCC" d="M63.401,12.451l-5.12,10.288c-2.775-2.775-7.242-4.163-13.398-4.163c-5.838,0-10.623,2.449-14.355,7.345
		c-3.732,4.897-5.599,11.094-5.599,18.59c0,7.497,1.73,13.446,5.192,17.849c3.461,4.402,8.079,6.604,13.853,6.604
		c6.604,0,11.771-2.36,15.504-7.082l5.79,10.049c-5.072,5.392-12.506,8.087-22.299,8.087c-9.794,0-17.402-3.222-22.825-9.666
		c-5.424-6.443-8.135-15.232-8.135-26.366c0-10.367,3.006-19.037,9.02-26.007c6.013-6.97,13.709-10.456,23.088-10.456
		C52.156,7.522,58.584,9.166,63.401,12.451z"/>
	<path fill="#00FFCC" d="M107.616,78.869v-4.307c-1.691,1.436-4.02,2.664-6.986,3.685s-5.694,1.531-8.183,1.531
		c-11.899,0-17.849-6.316-17.849-18.949V27.572h11.963V59.92c0,6.572,2.95,9.857,8.853,9.857c2.711,0,5.231-0.701,7.561-2.105
		c2.328-1.403,3.876-3.03,4.642-4.881V27.572h11.963v51.297H107.616z"/>
	<path fill="#00FFCC" d="M140.969,75.998l-2.68,3.78h-6.747V8.479l11.963-2.871v23.926c3.189-1.945,6.667-2.919,10.432-2.919
		c7.496,0,13.542,2.369,18.136,7.106s6.891,10.807,6.891,18.208c0,8.582-2.313,15.368-6.938,20.361
		c-4.626,4.992-10.895,7.488-18.806,7.488C148.465,79.778,144.382,78.519,140.969,75.998z M143.505,39.774v26.749
		c1.754,2.074,4.131,3.11,7.13,3.11c5.773,0,9.865-1.371,12.274-4.115c2.408-2.743,3.613-7.13,3.613-13.159
		c0-10.399-4.977-15.6-14.93-15.6C148.051,36.76,145.354,37.765,143.505,39.774z"/>
	<path fill="#00FFCC" d="M235.236,56.857H198.63c0.223,4.084,1.627,7.258,4.211,9.522c2.584,2.266,6.061,3.397,10.432,3.397
		c5.455,0,9.602-1.419,12.441-4.259l4.642,9.14c-4.211,3.414-10.496,5.12-18.854,5.12c-7.816,0-13.997-2.289-18.542-6.867
		c-4.546-4.577-6.819-10.965-6.819-19.164c0-8.07,2.496-14.61,7.489-19.619c4.992-5.008,10.982-7.513,17.968-7.513
		c7.433,0,13.398,2.218,17.896,6.651c4.498,4.435,6.747,10.081,6.747,16.939C236.241,51.674,235.906,53.891,235.236,56.857z
		 M199.061,47.861h25.17c-0.83-7.496-4.977-11.245-12.441-11.245C204.962,36.616,200.719,40.365,199.061,47.861z"/>
	<path fill="#00FFCC" d="M267.967,78.821h-21.438V8.767c9.442-0.446,16.062-0.67,19.858-0.67c7.273,0,12.959,1.555,17.059,4.666
		c4.099,3.11,6.149,7.553,6.149,13.327c0,5.551-2.936,9.938-8.805,13.159c8.709,3.031,13.063,9.283,13.063,18.758
		c0,6.381-2.409,11.444-7.226,15.192C281.812,76.947,275.591,78.821,267.967,78.821z M258.971,18.72v16.796
		c1.914,0.128,3.924,0.191,6.029,0.191c8.103,0,12.154-3.046,12.154-9.14c0-5.391-3.685-8.087-11.054-8.087
		C264.154,18.48,261.777,18.561,258.971,18.72z M258.971,45.229v23.16c2.52,0.224,4.562,0.335,6.125,0.335
		c5.551,0,9.578-0.94,12.083-2.823c2.504-1.882,3.756-5.008,3.756-9.379c0-3.987-1.165-6.891-3.493-8.709
		c-2.329-1.818-6.396-2.728-12.202-2.728C264.026,45.086,261.938,45.134,258.971,45.229z"/>
	<path fill="#00FFCC" d="M337.16,78.869v-4.307c-1.691,1.436-4.02,2.664-6.986,3.685s-5.694,1.531-8.183,1.531
		c-11.899,0-17.849-6.316-17.849-18.949V27.572h11.963V59.92c0,6.572,2.95,9.857,8.853,9.857c2.711,0,5.231-0.701,7.561-2.105
		c2.328-1.403,3.876-3.03,4.642-4.881V27.572h11.963v51.297H337.16z"/>
	<path fill="#00FFCC" d="M365.249,78.821V37.382h-6.556v-9.81h18.662v51.249H365.249z M371.422,7.714
		c1.914,0,3.549,0.678,4.905,2.034c1.355,1.356,2.033,2.991,2.033,4.905s-0.678,3.549-2.033,4.905
		c-1.356,1.356-2.991,2.034-4.905,2.034s-3.549-0.677-4.905-2.034c-1.355-1.355-2.033-2.991-2.033-4.905s0.678-3.548,2.033-4.905
		C367.873,8.392,369.508,7.714,371.422,7.714z"/>
	<path fill="#00FFCC" d="M393.338,8.479l11.963-2.871v57.613c0,6.316,1.882,10.081,5.646,11.293
		c-1.851,3.51-5.009,5.264-9.475,5.264c-5.424,0-8.135-3.764-8.135-11.293V8.479z"/>
	<path fill="#00FFCC" d="M453.152,78.821v-3.11c-0.989,1.085-2.664,2.034-5.024,2.847c-2.361,0.814-4.802,1.221-7.321,1.221
		c-7.146,0-12.769-2.265-16.867-6.795c-4.1-4.529-6.149-10.846-6.149-18.949c0-8.103,2.353-14.698,7.058-19.787
		c4.706-5.088,10.6-7.632,17.682-7.632c3.892,0,7.433,0.798,10.623,2.393V8.479l11.963-2.871v73.213H453.152z M453.152,39.822
		c-2.553-2.041-5.216-3.062-7.991-3.062c-4.785,0-8.47,1.459-11.054,4.378c-2.584,2.92-3.876,7.106-3.876,12.562
		c0,10.655,5.136,15.982,15.408,15.982c1.148,0,2.56-0.343,4.235-1.028c1.674-0.687,2.767-1.38,3.277-2.082V39.822z"/>
	<path fill="#00FFCC" d="M522.824,56.857h-36.606c0.223,4.084,1.627,7.258,4.211,9.522c2.584,2.266,6.061,3.397,10.432,3.397
		c5.455,0,9.602-1.419,12.441-4.259l4.642,9.14c-4.211,3.414-10.496,5.12-18.854,5.12c-7.816,0-13.997-2.289-18.542-6.867
		c-4.547-4.577-6.819-10.965-6.819-19.164c0-8.07,2.496-14.61,7.489-19.619c4.992-5.008,10.981-7.513,17.968-7.513
		c7.433,0,13.398,2.218,17.896,6.651c4.498,4.435,6.747,10.081,6.747,16.939C523.829,51.674,523.494,53.891,522.824,56.857z
		 M486.648,47.861h25.17c-0.83-7.496-4.977-11.245-12.441-11.245C492.55,36.616,488.307,40.365,486.648,47.861z"/>
	<path fill="#00FFCC" d="M563.02,38.722c-2.138-1.403-4.482-2.105-7.034-2.105c-2.775,0-5.239,1.261-7.394,3.78
		c-2.152,2.521-3.229,5.599-3.229,9.235v29.189h-11.963V27.572h11.963v4.689c3.35-3.764,7.8-5.646,13.351-5.646
		c4.083,0,7.209,0.622,9.379,1.866L563.02,38.722z"/>
	<path fill="#00FFCC" d="M572.111,75.52l4.259-9.522c3.572,2.84,7.608,4.259,12.106,4.259c4.657,0,6.986-1.658,6.986-4.977
		c0-1.945-0.702-3.541-2.105-4.785c-1.404-1.244-4.132-2.711-8.183-4.402c-8.837-3.668-13.255-8.805-13.255-15.408
		c0-4.434,1.69-7.887,5.072-10.36c3.381-2.472,7.704-3.708,12.968-3.708c5.327,0,10.336,1.196,15.025,3.589l-3.445,9.283
		c-2.616-2.232-6.253-3.35-10.91-3.35c-4.18,0-6.269,1.659-6.269,4.977c0,1.309,0.686,2.488,2.058,3.541
		c1.371,1.053,4.307,2.465,8.805,4.234c4.498,1.771,7.735,3.917,9.714,6.437c1.978,2.521,2.967,5.567,2.967,9.14
		c0,4.754-1.763,8.494-5.288,11.221c-3.524,2.729-8.318,4.092-14.379,4.092c-3.414,0-6.148-0.279-8.207-0.838
		C577.974,78.383,575.333,77.242,572.111,75.52z"/>
</g>
<g enable-background="new    ">
	<path fill="#FFFFFF" d="M58.34,7.142L53.22,17.43c-2.775-2.775-7.242-4.163-13.398-4.163c-5.838,0-10.623,2.449-14.355,7.345
		c-3.732,4.897-5.599,11.094-5.599,18.59c0,7.497,1.73,13.446,5.192,17.849c3.461,4.402,8.079,6.604,13.853,6.604
		c6.604,0,11.771-2.36,15.504-7.082l5.79,10.049c-5.072,5.392-12.506,8.087-22.299,8.087c-9.794,0-17.402-3.222-22.825-9.666
		C9.659,58.599,6.948,49.81,6.948,38.676c0-10.367,3.006-19.037,9.02-26.007C21.98,5.699,29.677,2.213,39.056,2.213
		C47.095,2.213,53.523,3.856,58.34,7.142z"/>
	<path fill="#FFFFFF" d="M102.555,73.56v-4.307c-1.691,1.436-4.02,2.664-6.986,3.685s-5.694,1.531-8.183,1.531
		c-11.899,0-17.849-6.316-17.849-18.949V22.263H81.5V54.61c0,6.572,2.95,9.857,8.853,9.857c2.711,0,5.231-0.701,7.561-2.105
		c2.328-1.403,3.876-3.03,4.642-4.881V22.263h11.963V73.56H102.555z"/>
	<path fill="#FFFFFF" d="M135.908,70.688l-2.68,3.78h-6.747V3.17l11.963-2.871v23.926c3.189-1.945,6.667-2.919,10.432-2.919
		c7.496,0,13.542,2.369,18.136,7.106s6.891,10.807,6.891,18.208c0,8.582-2.313,15.368-6.938,20.361
		c-4.626,4.992-10.895,7.488-18.806,7.488C143.404,74.469,139.321,73.209,135.908,70.688z M138.444,34.465v26.749
		c1.754,2.074,4.131,3.11,7.13,3.11c5.773,0,9.865-1.371,12.274-4.115c2.408-2.743,3.613-7.13,3.613-13.159
		c0-10.399-4.977-15.6-14.93-15.6C142.99,31.45,140.293,32.455,138.444,34.465z"/>
	<path fill="#FFFFFF" d="M230.175,51.548h-36.606c0.223,4.084,1.627,7.258,4.211,9.522c2.584,2.266,6.061,3.397,10.432,3.397
		c5.455,0,9.602-1.419,12.441-4.259l4.642,9.14c-4.211,3.414-10.496,5.12-18.854,5.12c-7.816,0-13.997-2.289-18.542-6.867
		c-4.546-4.577-6.819-10.965-6.819-19.164c0-8.07,2.496-14.61,7.489-19.619c4.992-5.008,10.982-7.513,17.968-7.513
		c7.433,0,13.398,2.218,17.896,6.651c4.498,4.435,6.747,10.081,6.747,16.939C231.18,46.364,230.845,48.581,230.175,51.548z
		 M194,42.552h25.17c-0.83-7.496-4.977-11.245-12.441-11.245C199.901,31.307,195.658,35.056,194,42.552z"/>
	<path fill="#FFFFFF" d="M262.906,73.512h-21.438V3.457c9.442-0.446,16.062-0.67,19.858-0.67c7.273,0,12.959,1.555,17.059,4.666
		c4.099,3.11,6.149,7.553,6.149,13.327c0,5.551-2.936,9.938-8.805,13.159c8.709,3.031,13.063,9.283,13.063,18.758
		c0,6.381-2.409,11.444-7.226,15.192C276.75,71.638,270.53,73.512,262.906,73.512z M253.91,13.41v16.796
		c1.914,0.128,3.924,0.191,6.029,0.191c8.103,0,12.154-3.046,12.154-9.14c0-5.391-3.685-8.087-11.054-8.087
		C259.093,13.171,256.716,13.251,253.91,13.41z M253.91,39.92v23.16c2.52,0.224,4.562,0.335,6.125,0.335
		c5.551,0,9.578-0.94,12.083-2.823c2.504-1.882,3.756-5.008,3.756-9.379c0-3.987-1.165-6.891-3.493-8.709
		c-2.329-1.818-6.396-2.728-12.202-2.728C258.965,39.776,256.876,39.824,253.91,39.92z"/>
	<path fill="#FFFFFF" d="M332.099,73.56v-4.307c-1.691,1.436-4.02,2.664-6.986,3.685s-5.694,1.531-8.183,1.531
		c-11.899,0-17.849-6.316-17.849-18.949V22.263h11.963V54.61c0,6.572,2.95,9.857,8.853,9.857c2.711,0,5.231-0.701,7.561-2.105
		c2.328-1.403,3.876-3.03,4.642-4.881V22.263h11.963V73.56H332.099z"/>
	<path fill="#FFFFFF" d="M360.188,73.512V32.072h-6.555v-9.81h18.662v51.249H360.188z M366.361,2.404
		c1.914,0,3.549,0.678,4.904,2.034c1.355,1.356,2.033,2.991,2.033,4.905s-0.678,3.549-2.033,4.905
		c-1.355,1.356-2.99,2.034-4.904,2.034s-3.549-0.677-4.906-2.034c-1.355-1.355-2.033-2.991-2.033-4.905s0.678-3.548,2.033-4.905
		C362.812,3.083,364.447,2.404,366.361,2.404z"/>
	<path fill="#FFFFFF" d="M388.277,3.17l11.963-2.871v57.613c0,6.316,1.881,10.081,5.646,11.293c-1.852,3.51-5.01,5.264-9.475,5.264
		c-5.424,0-8.135-3.764-8.135-11.293V3.17z"/>
	<path fill="#FFFFFF" d="M448.092,73.512v-3.11c-0.99,1.085-2.664,2.034-5.025,2.847c-2.361,0.814-4.801,1.221-7.32,1.221
		c-7.146,0-12.77-2.265-16.867-6.795c-4.1-4.529-6.15-10.846-6.15-18.949c0-8.103,2.354-14.698,7.059-19.787
		c4.705-5.088,10.6-7.632,17.682-7.632c3.891,0,7.432,0.798,10.623,2.393V3.17l11.963-2.871v73.213H448.092z M448.092,34.513
		c-2.553-2.041-5.217-3.062-7.992-3.062c-4.785,0-8.469,1.459-11.053,4.378c-2.584,2.92-3.877,7.106-3.877,12.562
		c0,10.655,5.137,15.982,15.408,15.982c1.148,0,2.561-0.343,4.236-1.028c1.674-0.687,2.766-1.38,3.277-2.082V34.513z"/>
	<path fill="#FFFFFF" d="M517.764,51.548h-36.607c0.223,4.084,1.627,7.258,4.211,9.522c2.584,2.266,6.061,3.397,10.432,3.397
		c5.455,0,9.602-1.419,12.441-4.259l4.643,9.14c-4.211,3.414-10.496,5.12-18.854,5.12c-7.816,0-13.998-2.289-18.543-6.867
		c-4.547-4.577-6.818-10.965-6.818-19.164c0-8.07,2.496-14.61,7.488-19.619c4.992-5.008,10.982-7.513,17.969-7.513
		c7.432,0,13.398,2.218,17.896,6.651c4.498,4.435,6.746,10.081,6.746,16.939C518.768,46.364,518.434,48.581,517.764,51.548z
		 M481.588,42.552h25.17c-0.83-7.496-4.977-11.245-12.441-11.245C487.488,31.307,483.246,35.056,481.588,42.552z"/>
	<path fill="#FFFFFF" d="M557.959,33.412c-2.139-1.403-4.482-2.105-7.035-2.105c-2.775,0-5.238,1.261-7.393,3.78
		c-2.152,2.521-3.23,5.599-3.23,9.235v29.189h-11.963V22.263h11.963v4.689c3.35-3.764,7.801-5.646,13.352-5.646
		c4.082,0,7.209,0.622,9.379,1.866L557.959,33.412z"/>
	<path fill="#FFFFFF" d="M567.051,70.21l4.258-9.522c3.572,2.84,7.609,4.259,12.107,4.259c4.656,0,6.986-1.658,6.986-4.977
		c0-1.945-0.703-3.541-2.105-4.785c-1.404-1.244-4.133-2.711-8.184-4.402c-8.836-3.668-13.254-8.805-13.254-15.408
		c0-4.434,1.689-7.887,5.072-10.36c3.381-2.472,7.703-3.708,12.967-3.708c5.328,0,10.336,1.196,15.025,3.589l-3.445,9.283
		c-2.615-2.232-6.252-3.35-10.91-3.35c-4.18,0-6.268,1.659-6.268,4.977c0,1.309,0.686,2.488,2.057,3.541s4.307,2.465,8.805,4.234
		c4.498,1.771,7.736,3.917,9.715,6.437c1.977,2.521,2.967,5.567,2.967,9.14c0,4.754-1.764,8.494-5.289,11.221
		c-3.523,2.729-8.318,4.092-14.379,4.092c-3.414,0-6.148-0.279-8.207-0.838C572.912,73.073,570.271,71.933,567.051,70.21z"/>
</g>
<g enable-background="new    ">
	<path fill="#FF0000" d="M619.527,74.854c0-0.744,0.26-1.377,0.781-1.898s1.154-0.782,1.898-0.782c0.745,0,1.378,0.261,1.899,0.782
		c0.521,0.521,0.782,1.154,0.782,1.898c0,0.745-0.262,1.38-0.782,1.906c-0.521,0.526-1.154,0.789-1.899,0.789
		c-0.744,0-1.377-0.263-1.898-0.789S619.527,75.599,619.527,74.854z"/>
	<path fill="#FF0000" d="M640.406,76.805v-9.219c0-1.36-0.261-2.353-0.781-2.979c-0.521-0.625-1.373-0.938-2.555-0.938
		c-0.546,0-1.129,0.153-1.75,0.461s-1.104,0.69-1.452,1.146v11.527h-3.723v-15.95h2.681l0.685,1.489
		c1.013-1.191,2.507-1.787,4.483-1.787c1.896,0,3.393,0.568,4.49,1.705c1.096,1.138,1.645,2.724,1.645,4.759v9.784H640.406z"/>
	<path fill="#FF0000" d="M662.388,69.969h-11.394c0.07,1.271,0.507,2.259,1.311,2.964c0.805,0.705,1.887,1.058,3.247,1.058
		c1.698,0,2.988-0.442,3.872-1.326l1.444,2.845c-1.311,1.062-3.267,1.594-5.867,1.594c-2.433,0-4.356-0.712-5.771-2.137
		c-1.416-1.425-2.123-3.413-2.123-5.965c0-2.512,0.777-4.547,2.331-6.106c1.554-1.559,3.418-2.338,5.592-2.338
		c2.313,0,4.17,0.69,5.57,2.07c1.399,1.38,2.1,3.138,2.1,5.271C662.7,68.355,662.596,69.046,662.388,69.969z M651.129,67.169h7.833
		c-0.258-2.333-1.549-3.499-3.872-3.499C652.965,63.67,651.645,64.836,651.129,67.169z"/>
	<path fill="#FF0000" d="M666.244,63.848h-1.846v-2.993h1.846v-3.246l3.725-1.37v4.616h4.377v2.993h-4.377v6.985
		c0,1.142,0.178,1.948,0.535,2.42s0.982,0.707,1.877,0.707c0.893,0,1.727-0.243,2.502-0.729v3.426
		c-0.863,0.297-2.096,0.446-3.693,0.446c-1.589,0-2.811-0.449-3.664-1.348s-1.281-2.177-1.281-3.835V63.848z"/>
</g>
<g enable-background="new    ">
	<path fill="#00FFCC" d="M623.527,77.049c0-0.744,0.26-1.377,0.781-1.898s1.154-0.782,1.898-0.782c0.745,0,1.378,0.261,1.899,0.782
		c0.521,0.521,0.782,1.154,0.782,1.898c0,0.745-0.262,1.38-0.782,1.906c-0.521,0.526-1.154,0.789-1.899,0.789
		c-0.744,0-1.377-0.263-1.898-0.789S623.527,77.794,623.527,77.049z"/>
	<path fill="#00FFCC" d="M644.406,79v-9.219c0-1.36-0.261-2.353-0.781-2.979c-0.521-0.625-1.373-0.938-2.555-0.938
		c-0.546,0-1.129,0.153-1.75,0.461s-1.104,0.69-1.452,1.146V79h-3.723V63.05h2.681l0.685,1.489c1.013-1.191,2.507-1.787,4.483-1.787
		c1.896,0,3.393,0.568,4.49,1.705c1.096,1.138,1.645,2.724,1.645,4.759V79H644.406z"/>
	<path fill="#00FFCC" d="M666.388,72.164h-11.394c0.07,1.271,0.507,2.259,1.311,2.964c0.805,0.705,1.887,1.058,3.247,1.058
		c1.698,0,2.988-0.442,3.872-1.326l1.444,2.845c-1.311,1.062-3.267,1.594-5.867,1.594c-2.433,0-4.356-0.712-5.771-2.137
		c-1.416-1.425-2.123-3.413-2.123-5.965c0-2.512,0.777-4.547,2.331-6.106c1.554-1.559,3.418-2.338,5.592-2.338
		c2.313,0,4.17,0.69,5.57,2.07c1.399,1.38,2.1,3.138,2.1,5.271C666.7,70.551,666.596,71.241,666.388,72.164z M655.129,69.364h7.833
		c-0.258-2.333-1.549-3.499-3.872-3.499C656.965,65.865,655.645,67.031,655.129,69.364z"/>
	<path fill="#00FFCC" d="M670.244,66.043h-1.846V63.05h1.846v-3.246l3.725-1.37v4.616h4.377v2.993h-4.377v6.985
		c0,1.142,0.178,1.948,0.535,2.42s0.982,0.707,1.877,0.707c0.893,0,1.727-0.243,2.502-0.729v3.426
		c-0.863,0.297-2.096,0.446-3.693,0.446c-1.589,0-2.811-0.449-3.664-1.348s-1.281-2.177-1.281-3.835V66.043z"/>
</g>
<g enable-background="new    ">
	<path fill="#FFFFFF" d="M621.783,76.088c0-0.744,0.26-1.377,0.781-1.898s1.154-0.782,1.898-0.782c0.745,0,1.378,0.261,1.899,0.782
		c0.521,0.521,0.782,1.154,0.782,1.898c0,0.745-0.262,1.38-0.782,1.906c-0.521,0.526-1.154,0.789-1.899,0.789
		c-0.744,0-1.377-0.263-1.898-0.789S621.783,76.833,621.783,76.088z"/>
	<path fill="#FFFFFF" d="M642.662,78.039V68.82c0-1.36-0.261-2.353-0.781-2.979c-0.521-0.625-1.373-0.938-2.555-0.938
		c-0.546,0-1.129,0.153-1.75,0.461s-1.104,0.69-1.452,1.146v11.527h-3.723v-15.95h2.681l0.685,1.489
		c1.013-1.191,2.507-1.787,4.483-1.787c1.896,0,3.393,0.568,4.49,1.705c1.096,1.138,1.645,2.724,1.645,4.759v9.784H642.662z"/>
	<path fill="#FFFFFF" d="M664.644,71.203H653.25c0.07,1.271,0.507,2.259,1.311,2.964c0.805,0.705,1.887,1.058,3.247,1.058
		c1.698,0,2.988-0.442,3.872-1.326l1.444,2.845c-1.311,1.062-3.267,1.594-5.867,1.594c-2.433,0-4.356-0.712-5.771-2.137
		c-1.416-1.425-2.123-3.413-2.123-5.965c0-2.512,0.777-4.547,2.331-6.106c1.554-1.559,3.418-2.338,5.592-2.338
		c2.313,0,4.17,0.69,5.57,2.07c1.399,1.38,2.1,3.138,2.1,5.271C664.956,69.59,664.852,70.28,664.644,71.203z M653.385,68.403h7.833
		c-0.258-2.333-1.549-3.499-3.872-3.499C655.221,64.904,653.9,66.07,653.385,68.403z"/>
	<path fill="#FFFFFF" d="M668.5,65.082h-1.846v-2.993h1.846v-3.246l3.725-1.37v4.616h4.377v2.993h-4.377v6.985
		c0,1.142,0.178,1.948,0.535,2.42s0.982,0.707,1.877,0.707c0.893,0,1.727-0.243,2.502-0.729v3.426
		c-0.863,0.297-2.096,0.446-3.693,0.446c-1.589,0-2.811-0.449-3.664-1.348s-1.281-2.177-1.281-3.835V65.082z"/>
</g>
</svg>
